<?xml version="1.0" standalone="no"?><!DOCTYPE svg PUBLIC "-//W3C//DTD SVG 1.1//EN" "http://www.w3.org/Graphics/SVG/1.1/DTD/svg11.dtd"><svg t="1737441934859" class="icon" viewBox="0 0 1024 1024" version="1.1" xmlns="http://www.w3.org/2000/svg" p-id="4193" xmlns:xlink="http://www.w3.org/1999/xlink" width="200" height="200"><path d="M262.4 64h499.2C892.8 64 960 131.2 960 262.4v499.2c0 131.2-67.2 198.4-198.4 198.4H262.4C131.2 960 64 892.8 64 761.6V262.4C64 131.2 131.2 64 262.4 64z" fill="#FF5CA1" p-id="4194"></path><path d="M707.2 454.4c3.2 0 16-3.2 16-3.2l6.4 48-12.8 3.2c0-6.4-9.6-44.8-9.6-48m25.6-6.4l6.4 51.2h19.2c-3.2-19.2-9.6-51.2-9.6-51.2h-16m-12.8 70.4s28.8-6.4 38.4-3.2c6.4 19.2 16 128 16 131.2-6.4 0-28.8 3.2-28.8 3.2-3.2-6.4-25.6-124.8-25.6-131.2m105.6-64h16c0 3.2 3.2 48 0 48h-12.8c0-3.2-3.2-44.8-3.2-48m22.4 0v51.2h19.2v-51.2c-6.4 0-12.8-3.2-19.2 0m-19.2 67.2s28.8-3.2 38.4 0c3.2 22.4 3.2 128 3.2 131.2h-28.8c0-6.4-12.8-128-12.8-131.2m-67.2-131.2c16 86.4 28.8 236.8 32 246.4h28.8c-12.8-92.8-22.4-243.2-22.4-246.4-3.2-6.4-38.4 0-38.4 0m-38.4 208c-3.2-25.6-89.6-51.2-140.8-44.8 0 0-6.4-54.4-9.6-105.6-3.2-44.8 0-89.6 0-96-3.2-3.2-38.4 16-57.6 22.4 0 0 22.4 96 38.4 297.6 0 0 25.6 3.2 70.4-6.4 51.2-9.6 102.4-35.2 99.2-67.2M617.6 640l-9.6-54.4c3.2 0 48 16 54.4 19.2 0 3.2-44.8 35.2-44.8 35.2m-275.2-185.6c3.2 0 16-3.2 16-3.2l6.4 48c-3.2 0-12.8 3.2-12.8 3.2 0-6.4-9.6-44.8-9.6-48m25.6-6.4l6.4 51.2h19.2c-3.2-19.2-6.4-51.2-6.4-51.2h-19.2m-12.8 70.4s28.8-6.4 38.4-3.2c6.4 19.2 16 128 16 131.2-6.4 0-28.8 3.2-28.8 3.2-3.2-6.4-25.6-124.8-25.6-131.2m105.6-64h16c0 3.2 3.2 48 0 48h-12.8c0-3.2-3.2-44.8-3.2-48m25.6 0v51.2h19.2v-51.2c-6.4 0-12.8-3.2-19.2 0m-22.4 67.2s28.8-3.2 38.4 0c3.2 22.4 3.2 128 3.2 131.2h-28.8c0-6.4-12.8-128-12.8-131.2m-67.2-131.2c16 86.4 28.8 236.8 32 246.4h28.8c-9.6-92.8-19.2-243.2-19.2-249.6-6.4-3.2-41.6 3.2-41.6 3.2m-38.4 208c-3.2-25.6-89.6-51.2-140.8-44.8 0 0-6.4-54.4-9.6-105.6-3.2-44.8 0-89.6 0-96-3.2-3.2-38.4 16-57.6 22.4 0 0 22.4 96 38.4 297.6 0 0 25.6 3.2 70.4-6.4s105.6-35.2 99.2-67.2M252.8 640l-6.4-54.4c3.2 0 48 16 54.4 19.2-3.2 3.2-48 35.2-48 35.2" fill="#FFFFFF" p-id="4195"></path></svg>